<?xml version="1.0" encoding="UTF-8" standalone="no"?>
<!DOCTYPE svg PUBLIC "-//W3C//DTD SVG 1.1//EN"
 "http://www.w3.org/Graphics/SVG/1.1/DTD/svg11.dtd">
<!-- Generated by graphviz version 2.47.3 (20210619.1520)
 -->
<!-- Title: dependencies Pages: 1 -->
<svg width="1846pt" height="312pt"
 viewBox="0.00 0.00 1846.00 311.80" xmlns="http://www.w3.org/2000/svg" xmlns:xlink="http://www.w3.org/1999/xlink">
<g id="graph0" class="graph" transform="scale(1 1) rotate(0) translate(4 307.8)">
<title>dependencies</title>
<polygon fill="white" stroke="transparent" points="-4,4 -4,-307.8 1842,-307.8 1842,4 -4,4"/>
<text text-anchor="middle" x="919" y="-8.2" font-family="sans-serif" font-size="14.00">dependencies</text>
<g id="clust1" class="cluster">
<title>cluster_AppModule</title>
<polygon fill="none" stroke="black" stroke-dasharray="1,5" points="8,-32.8 8,-295.8 1830,-295.8 1830,-32.8 8,-32.8"/>
</g>
<g id="clust6" class="cluster">
<title>cluster_AppModule_AppComponent_providers</title>
<polygon fill="none" stroke="black" points="1690,-40.8 1690,-157.8 1822,-157.8 1822,-40.8 1690,-40.8"/>
</g>
<g id="clust13" class="cluster">
<title>cluster_AppModule_imports</title>
<polygon fill="none" stroke="black" points="1538,-105.8 1538,-157.8 1682,-157.8 1682,-105.8 1538,-105.8"/>
</g>
<g id="clust15" class="cluster">
<title>cluster_AppModule_bootstrap</title>
<polygon fill="none" stroke="black" points="886,-235.8 886,-287.8 1010,-287.8 1010,-235.8 886,-235.8"/>
</g>
<g id="clust2" class="cluster">
<title>cluster_AppModule_declarations</title>
<polygon fill="none" stroke="black" points="16,-105.8 16,-157.8 1530,-157.8 1530,-105.8 16,-105.8"/>
</g>
<!-- ActivityOneComponent -->
<g id="node1" class="node">
<title>ActivityOneComponent</title>
<polygon fill="#ffffb3" stroke="black" points="1522.04,-149.8 1371.96,-149.8 1371.96,-113.8 1522.04,-113.8 1522.04,-149.8"/>
<text text-anchor="middle" x="1447" y="-127.6" font-family="Times,serif" font-size="14.00">ActivityOneComponent</text>
</g>
<!-- AppModule -->
<g id="node11" class="node">
<title>AppModule</title>
<polygon fill="#8dd3c7" stroke="black" points="989.66,-214.8 986.66,-218.8 965.66,-218.8 962.66,-214.8 906.34,-214.8 906.34,-178.8 989.66,-178.8 989.66,-214.8"/>
<text text-anchor="middle" x="948" y="-192.6" font-family="Times,serif" font-size="14.00">AppModule</text>
</g>
<!-- ActivityOneComponent&#45;&gt;AppModule -->
<g id="edge1" class="edge">
<title>ActivityOneComponent&#45;&gt;AppModule</title>
<path fill="none" stroke="black" d="M1447,-149.91C1447,-169.14 1447,-196.8 1447,-196.8 1447,-196.8 999.69,-196.8 999.69,-196.8"/>
<polygon fill="black" stroke="black" points="999.69,-193.3 989.69,-196.8 999.69,-200.3 999.69,-193.3"/>
</g>
<!-- ActivityThreeComponent -->
<g id="node2" class="node">
<title>ActivityThreeComponent</title>
<polygon fill="#ffffb3" stroke="black" points="1353.86,-149.8 1194.14,-149.8 1194.14,-113.8 1353.86,-113.8 1353.86,-149.8"/>
<text text-anchor="middle" x="1274" y="-127.6" font-family="Times,serif" font-size="14.00">ActivityThreeComponent</text>
</g>
<!-- ActivityThreeComponent&#45;&gt;AppModule -->
<g id="edge2" class="edge">
<title>ActivityThreeComponent&#45;&gt;AppModule</title>
<path fill="none" stroke="black" d="M1274,-149.82C1274,-167.17 1274,-190.8 1274,-190.8 1274,-190.8 999.95,-190.8 999.95,-190.8"/>
<polygon fill="black" stroke="black" points="999.95,-187.3 989.95,-190.8 999.95,-194.3 999.95,-187.3"/>
</g>
<!-- ActivityTwoComponent -->
<g id="node3" class="node">
<title>ActivityTwoComponent</title>
<polygon fill="#ffffb3" stroke="black" points="1176.38,-149.8 1023.62,-149.8 1023.62,-113.8 1176.38,-113.8 1176.38,-149.8"/>
<text text-anchor="middle" x="1100" y="-127.6" font-family="Times,serif" font-size="14.00">ActivityTwoComponent</text>
</g>
<!-- ActivityTwoComponent&#45;&gt;AppModule -->
<g id="edge3" class="edge">
<title>ActivityTwoComponent&#45;&gt;AppModule</title>
<path fill="none" stroke="black" d="M1100,-150.04C1100,-165.37 1100,-184.8 1100,-184.8 1100,-184.8 999.94,-184.8 999.94,-184.8"/>
<polygon fill="black" stroke="black" points="999.94,-181.3 989.94,-184.8 999.94,-188.3 999.94,-181.3"/>
</g>
<!-- AppComponent -->
<g id="node4" class="node">
<title>AppComponent</title>
<polygon fill="#ffffb3" stroke="black" points="1805.94,-149.8 1700.06,-149.8 1700.06,-113.8 1805.94,-113.8 1805.94,-149.8"/>
<text text-anchor="middle" x="1753" y="-127.6" font-family="Times,serif" font-size="14.00">AppComponent</text>
</g>
<!-- AppComponent&#45;&gt;AppModule -->
<g id="edge4" class="edge">
<title>AppComponent&#45;&gt;AppModule</title>
<path fill="none" stroke="black" d="M1753,-150.05C1753,-172.82 1753,-208.8 1753,-208.8 1753,-208.8 999.87,-208.8 999.87,-208.8"/>
<polygon fill="black" stroke="black" points="999.87,-205.3 989.87,-208.8 999.87,-212.3 999.87,-205.3"/>
</g>
<!-- HomeComponent -->
<g id="node5" class="node">
<title>HomeComponent</title>
<polygon fill="#ffffb3" stroke="black" points="1005.55,-149.8 890.45,-149.8 890.45,-113.8 1005.55,-113.8 1005.55,-149.8"/>
<text text-anchor="middle" x="948" y="-127.6" font-family="Times,serif" font-size="14.00">HomeComponent</text>
</g>
<!-- HomeComponent&#45;&gt;AppModule -->
<g id="edge6" class="edge">
<title>HomeComponent&#45;&gt;AppModule</title>
<path fill="none" stroke="black" d="M948,-149.91C948,-149.91 948,-168.79 948,-168.79"/>
<polygon fill="black" stroke="black" points="944.5,-168.79 948,-178.79 951.5,-168.79 944.5,-168.79"/>
</g>
<!-- LeaderboardComponent -->
<g id="node6" class="node">
<title>LeaderboardComponent</title>
<polygon fill="#ffffb3" stroke="black" points="872.06,-149.8 719.94,-149.8 719.94,-113.8 872.06,-113.8 872.06,-149.8"/>
<text text-anchor="middle" x="796" y="-127.6" font-family="Times,serif" font-size="14.00">LeaderboardComponent</text>
</g>
<!-- LeaderboardComponent&#45;&gt;AppModule -->
<g id="edge7" class="edge">
<title>LeaderboardComponent&#45;&gt;AppModule</title>
<path fill="none" stroke="black" d="M796,-150.04C796,-165.37 796,-184.8 796,-184.8 796,-184.8 896.06,-184.8 896.06,-184.8"/>
<polygon fill="black" stroke="black" points="896.06,-188.3 906.06,-184.8 896.06,-181.3 896.06,-188.3"/>
</g>
<!-- LoginComponent -->
<g id="node7" class="node">
<title>LoginComponent</title>
<polygon fill="#ffffb3" stroke="black" points="702.28,-149.8 587.72,-149.8 587.72,-113.8 702.28,-113.8 702.28,-149.8"/>
<text text-anchor="middle" x="645" y="-127.6" font-family="Times,serif" font-size="14.00">LoginComponent</text>
</g>
<!-- LoginComponent&#45;&gt;AppModule -->
<g id="edge8" class="edge">
<title>LoginComponent&#45;&gt;AppModule</title>
<path fill="none" stroke="black" d="M645,-149.82C645,-167.17 645,-190.8 645,-190.8 645,-190.8 896.19,-190.8 896.19,-190.8"/>
<polygon fill="black" stroke="black" points="896.19,-194.3 906.19,-190.8 896.19,-187.3 896.19,-194.3"/>
</g>
<!-- MisclassifiedImagesComponent -->
<g id="node8" class="node">
<title>MisclassifiedImagesComponent</title>
<polygon fill="#ffffb3" stroke="black" points="569.4,-149.8 372.6,-149.8 372.6,-113.8 569.4,-113.8 569.4,-149.8"/>
<text text-anchor="middle" x="471" y="-127.6" font-family="Times,serif" font-size="14.00">MisclassifiedImagesComponent</text>
</g>
<!-- MisclassifiedImagesComponent&#45;&gt;AppModule -->
<g id="edge9" class="edge">
<title>MisclassifiedImagesComponent&#45;&gt;AppModule</title>
<path fill="none" stroke="black" d="M471,-149.91C471,-169.14 471,-196.8 471,-196.8 471,-196.8 896.09,-196.8 896.09,-196.8"/>
<polygon fill="black" stroke="black" points="896.09,-200.3 906.09,-196.8 896.09,-193.3 896.09,-200.3"/>
</g>
<!-- NavMenuComponent -->
<g id="node9" class="node">
<title>NavMenuComponent</title>
<polygon fill="#ffffb3" stroke="black" points="354.81,-149.8 217.19,-149.8 217.19,-113.8 354.81,-113.8 354.81,-149.8"/>
<text text-anchor="middle" x="286" y="-127.6" font-family="Times,serif" font-size="14.00">NavMenuComponent</text>
</g>
<!-- NavMenuComponent&#45;&gt;AppModule -->
<g id="edge10" class="edge">
<title>NavMenuComponent&#45;&gt;AppModule</title>
<path fill="none" stroke="black" d="M286,-150.08C286,-171.12 286,-202.8 286,-202.8 286,-202.8 896.34,-202.8 896.34,-202.8"/>
<polygon fill="black" stroke="black" points="896.34,-206.3 906.34,-202.8 896.34,-199.3 896.34,-206.3"/>
</g>
<!-- RecognizeBlightComponent -->
<g id="node10" class="node">
<title>RecognizeBlightComponent</title>
<polygon fill="#ffffb3" stroke="black" points="199.93,-149.8 24.07,-149.8 24.07,-113.8 199.93,-113.8 199.93,-149.8"/>
<text text-anchor="middle" x="112" y="-127.6" font-family="Times,serif" font-size="14.00">RecognizeBlightComponent</text>
</g>
<!-- RecognizeBlightComponent&#45;&gt;AppModule -->
<g id="edge11" class="edge">
<title>RecognizeBlightComponent&#45;&gt;AppModule</title>
<path fill="none" stroke="black" d="M112,-150.05C112,-172.82 112,-208.8 112,-208.8 112,-208.8 896.26,-208.8 896.26,-208.8"/>
<polygon fill="black" stroke="black" points="896.26,-212.3 906.26,-208.8 896.26,-205.3 896.26,-212.3"/>
</g>
<!-- AppComponent  -->
<g id="node14" class="node">
<title>AppComponent </title>
<polygon fill="#80b1d3" stroke="black" points="1002.44,-279.8 893.56,-279.8 893.56,-243.8 1002.44,-243.8 1002.44,-279.8"/>
<text text-anchor="middle" x="948" y="-257.6" font-family="Times,serif" font-size="14.00">AppComponent </text>
</g>
<!-- AppModule&#45;&gt;AppComponent  -->
<g id="edge13" class="edge">
<title>AppModule&#45;&gt;AppComponent </title>
<path fill="none" stroke="black" stroke-dasharray="1,5" d="M948,-214.91C948,-214.91 948,-233.79 948,-233.79"/>
<polygon fill="black" stroke="black" points="944.5,-233.79 948,-243.79 951.5,-233.79 944.5,-233.79"/>
</g>
<!-- UserService -->
<g id="node12" class="node">
<title>UserService</title>
<ellipse fill="#fdb462" stroke="black" cx="1756" cy="-66.8" rx="58.44" ry="18"/>
<text text-anchor="middle" x="1756" y="-62.6" font-family="Times,serif" font-size="14.00">UserService</text>
</g>
<!-- UserService&#45;&gt;AppComponent -->
<g id="edge5" class="edge">
<title>UserService&#45;&gt;AppComponent</title>
<path fill="none" stroke="black" d="M1753,-84.91C1753,-84.91 1753,-103.79 1753,-103.79"/>
<polygon fill="black" stroke="black" points="1749.5,-103.79 1753,-113.79 1756.5,-103.79 1749.5,-103.79"/>
</g>
<!-- AppRoutingModule -->
<g id="node13" class="node">
<title>AppRoutingModule</title>
<polygon fill="#8dd3c7" stroke="black" points="1674.27,-149.8 1671.27,-153.8 1650.27,-153.8 1647.27,-149.8 1545.73,-149.8 1545.73,-113.8 1674.27,-113.8 1674.27,-149.8"/>
<text text-anchor="middle" x="1610" y="-127.6" font-family="Times,serif" font-size="14.00">AppRoutingModule</text>
</g>
<!-- AppRoutingModule&#45;&gt;AppModule -->
<g id="edge12" class="edge">
<title>AppRoutingModule&#45;&gt;AppModule</title>
<path fill="none" stroke="black" d="M1610,-150.08C1610,-171.12 1610,-202.8 1610,-202.8 1610,-202.8 999.66,-202.8 999.66,-202.8"/>
<polygon fill="black" stroke="black" points="999.66,-199.3 989.66,-202.8 999.66,-206.3 999.66,-199.3"/>
</g>
</g>
</svg>
