<?xml version="1.0" encoding="UTF-8" standalone="no"?>
<!DOCTYPE svg PUBLIC "-//W3C//DTD SVG 1.1//EN"
 "http://www.w3.org/Graphics/SVG/1.1/DTD/svg11.dtd">
<!-- Generated by graphviz version 2.47.3 (20210619.1520)
 -->
<!-- Title: dependencies Pages: 1 -->
<svg width="1438pt" height="312pt"
 viewBox="0.00 0.00 1438.00 311.80" xmlns="http://www.w3.org/2000/svg" xmlns:xlink="http://www.w3.org/1999/xlink">
<g id="graph0" class="graph" transform="scale(1 1) rotate(0) translate(4 307.8)">
<title>dependencies</title>
<polygon fill="white" stroke="transparent" points="-4,4 -4,-307.8 1434,-307.8 1434,4 -4,4"/>
<text text-anchor="middle" x="715" y="-8.2" font-family="sans-serif" font-size="14.00">dependencies</text>
<g id="clust1" class="cluster">
<title>cluster_AppModule</title>
<polygon fill="none" stroke="black" stroke-dasharray="1,5" points="8,-32.8 8,-295.8 1422,-295.8 1422,-32.8 8,-32.8"/>
</g>
<g id="clust6" class="cluster">
<title>cluster_AppModule_AppComponent_providers</title>
<polygon fill="none" stroke="black" points="1282,-40.8 1282,-157.8 1414,-157.8 1414,-40.8 1282,-40.8"/>
</g>
<g id="clust13" class="cluster">
<title>cluster_AppModule_bootstrap</title>
<polygon fill="none" stroke="black" points="630,-235.8 630,-287.8 754,-287.8 754,-235.8 630,-235.8"/>
</g>
<g id="clust11" class="cluster">
<title>cluster_AppModule_imports</title>
<polygon fill="none" stroke="black" points="1130,-105.8 1130,-157.8 1274,-157.8 1274,-105.8 1130,-105.8"/>
</g>
<g id="clust2" class="cluster">
<title>cluster_AppModule_declarations</title>
<polygon fill="none" stroke="black" points="16,-105.8 16,-157.8 1122,-157.8 1122,-105.8 16,-105.8"/>
</g>
<!-- ActivityOneComponent -->
<g id="node1" class="node">
<title>ActivityOneComponent</title>
<polygon fill="#ffffb3" stroke="black" points="1114.04,-149.8 963.96,-149.8 963.96,-113.8 1114.04,-113.8 1114.04,-149.8"/>
<text text-anchor="middle" x="1039" y="-127.6" font-family="Times,serif" font-size="14.00">ActivityOneComponent</text>
</g>
<!-- AppModule -->
<g id="node9" class="node">
<title>AppModule</title>
<polygon fill="#8dd3c7" stroke="black" points="733.66,-214.8 730.66,-218.8 709.66,-218.8 706.66,-214.8 650.34,-214.8 650.34,-178.8 733.66,-178.8 733.66,-214.8"/>
<text text-anchor="middle" x="692" y="-192.6" font-family="Times,serif" font-size="14.00">AppModule</text>
</g>
<!-- ActivityOneComponent&#45;&gt;AppModule -->
<g id="edge1" class="edge">
<title>ActivityOneComponent&#45;&gt;AppModule</title>
<path fill="none" stroke="black" d="M1039,-150.07C1039,-168.36 1039,-193.8 1039,-193.8 1039,-193.8 743.86,-193.8 743.86,-193.8"/>
<polygon fill="black" stroke="black" points="743.86,-190.3 733.86,-193.8 743.86,-197.3 743.86,-190.3"/>
</g>
<!-- ActivityThreeComponent -->
<g id="node2" class="node">
<title>ActivityThreeComponent</title>
<polygon fill="#ffffb3" stroke="black" points="945.86,-149.8 786.14,-149.8 786.14,-113.8 945.86,-113.8 945.86,-149.8"/>
<text text-anchor="middle" x="866" y="-127.6" font-family="Times,serif" font-size="14.00">ActivityThreeComponent</text>
</g>
<!-- ActivityThreeComponent&#45;&gt;AppModule -->
<g id="edge2" class="edge">
<title>ActivityThreeComponent&#45;&gt;AppModule</title>
<path fill="none" stroke="black" d="M866,-149.81C866,-165.85 866,-186.8 866,-186.8 866,-186.8 743.68,-186.8 743.68,-186.8"/>
<polygon fill="black" stroke="black" points="743.68,-183.3 733.68,-186.8 743.68,-190.3 743.68,-183.3"/>
</g>
<!-- ActivityTwoComponent -->
<g id="node3" class="node">
<title>ActivityTwoComponent</title>
<polygon fill="#ffffb3" stroke="black" points="768.38,-149.8 615.62,-149.8 615.62,-113.8 768.38,-113.8 768.38,-149.8"/>
<text text-anchor="middle" x="692" y="-127.6" font-family="Times,serif" font-size="14.00">ActivityTwoComponent</text>
</g>
<!-- ActivityTwoComponent&#45;&gt;AppModule -->
<g id="edge3" class="edge">
<title>ActivityTwoComponent&#45;&gt;AppModule</title>
<path fill="none" stroke="black" d="M692,-149.91C692,-149.91 692,-168.79 692,-168.79"/>
<polygon fill="black" stroke="black" points="688.5,-168.79 692,-178.79 695.5,-168.79 688.5,-168.79"/>
</g>
<!-- AppComponent -->
<g id="node4" class="node">
<title>AppComponent</title>
<polygon fill="#ffffb3" stroke="black" points="1397.94,-149.8 1292.06,-149.8 1292.06,-113.8 1397.94,-113.8 1397.94,-149.8"/>
<text text-anchor="middle" x="1345" y="-127.6" font-family="Times,serif" font-size="14.00">AppComponent</text>
</g>
<!-- AppComponent&#45;&gt;AppModule -->
<g id="edge4" class="edge">
<title>AppComponent&#45;&gt;AppModule</title>
<path fill="none" stroke="black" d="M1345,-149.81C1345,-172.29 1345,-207.8 1345,-207.8 1345,-207.8 743.84,-207.8 743.84,-207.8"/>
<polygon fill="black" stroke="black" points="743.84,-204.3 733.84,-207.8 743.84,-211.3 743.84,-204.3"/>
</g>
<!-- HomeComponent -->
<g id="node5" class="node">
<title>HomeComponent</title>
<polygon fill="#ffffb3" stroke="black" points="597.55,-149.8 482.45,-149.8 482.45,-113.8 597.55,-113.8 597.55,-149.8"/>
<text text-anchor="middle" x="540" y="-127.6" font-family="Times,serif" font-size="14.00">HomeComponent</text>
</g>
<!-- HomeComponent&#45;&gt;AppModule -->
<g id="edge6" class="edge">
<title>HomeComponent&#45;&gt;AppModule</title>
<path fill="none" stroke="black" d="M540,-149.81C540,-165.85 540,-186.8 540,-186.8 540,-186.8 640.06,-186.8 640.06,-186.8"/>
<polygon fill="black" stroke="black" points="640.06,-190.3 650.06,-186.8 640.06,-183.3 640.06,-190.3"/>
</g>
<!-- LeaderboardComponent -->
<g id="node6" class="node">
<title>LeaderboardComponent</title>
<polygon fill="#ffffb3" stroke="black" points="464.06,-149.8 311.94,-149.8 311.94,-113.8 464.06,-113.8 464.06,-149.8"/>
<text text-anchor="middle" x="388" y="-127.6" font-family="Times,serif" font-size="14.00">LeaderboardComponent</text>
</g>
<!-- LeaderboardComponent&#45;&gt;AppModule -->
<g id="edge7" class="edge">
<title>LeaderboardComponent&#45;&gt;AppModule</title>
<path fill="none" stroke="black" d="M388,-150.07C388,-168.36 388,-193.8 388,-193.8 388,-193.8 640.05,-193.8 640.05,-193.8"/>
<polygon fill="black" stroke="black" points="640.05,-197.3 650.05,-193.8 640.05,-190.3 640.05,-197.3"/>
</g>
<!-- LoginComponent -->
<g id="node7" class="node">
<title>LoginComponent</title>
<polygon fill="#ffffb3" stroke="black" points="294.28,-149.8 179.72,-149.8 179.72,-113.8 294.28,-113.8 294.28,-149.8"/>
<text text-anchor="middle" x="237" y="-127.6" font-family="Times,serif" font-size="14.00">LoginComponent</text>
</g>
<!-- LoginComponent&#45;&gt;AppModule -->
<g id="edge8" class="edge">
<title>LoginComponent&#45;&gt;AppModule</title>
<path fill="none" stroke="black" d="M237,-149.93C237,-170.37 237,-200.8 237,-200.8 237,-200.8 640.01,-200.8 640.01,-200.8"/>
<polygon fill="black" stroke="black" points="640.01,-204.3 650.01,-200.8 640.01,-197.3 640.01,-204.3"/>
</g>
<!-- NavMenuComponent -->
<g id="node8" class="node">
<title>NavMenuComponent</title>
<polygon fill="#ffffb3" stroke="black" points="161.81,-149.8 24.19,-149.8 24.19,-113.8 161.81,-113.8 161.81,-149.8"/>
<text text-anchor="middle" x="93" y="-127.6" font-family="Times,serif" font-size="14.00">NavMenuComponent</text>
</g>
<!-- NavMenuComponent&#45;&gt;AppModule -->
<g id="edge9" class="edge">
<title>NavMenuComponent&#45;&gt;AppModule</title>
<path fill="none" stroke="black" d="M93,-149.81C93,-172.29 93,-207.8 93,-207.8 93,-207.8 639.88,-207.8 639.88,-207.8"/>
<polygon fill="black" stroke="black" points="639.88,-211.3 649.88,-207.8 639.88,-204.3 639.88,-211.3"/>
</g>
<!-- AppComponent  -->
<g id="node12" class="node">
<title>AppComponent </title>
<polygon fill="#80b1d3" stroke="black" points="746.44,-279.8 637.56,-279.8 637.56,-243.8 746.44,-243.8 746.44,-279.8"/>
<text text-anchor="middle" x="692" y="-257.6" font-family="Times,serif" font-size="14.00">AppComponent </text>
</g>
<!-- AppModule&#45;&gt;AppComponent  -->
<g id="edge11" class="edge">
<title>AppModule&#45;&gt;AppComponent </title>
<path fill="none" stroke="black" stroke-dasharray="1,5" d="M692,-214.91C692,-214.91 692,-233.79 692,-233.79"/>
<polygon fill="black" stroke="black" points="688.5,-233.79 692,-243.79 695.5,-233.79 688.5,-233.79"/>
</g>
<!-- UserService -->
<g id="node10" class="node">
<title>UserService</title>
<ellipse fill="#fdb462" stroke="black" cx="1348" cy="-66.8" rx="58.44" ry="18"/>
<text text-anchor="middle" x="1348" y="-62.6" font-family="Times,serif" font-size="14.00">UserService</text>
</g>
<!-- UserService&#45;&gt;AppComponent -->
<g id="edge5" class="edge">
<title>UserService&#45;&gt;AppComponent</title>
<path fill="none" stroke="black" d="M1345,-84.91C1345,-84.91 1345,-103.79 1345,-103.79"/>
<polygon fill="black" stroke="black" points="1341.5,-103.79 1345,-113.79 1348.5,-103.79 1341.5,-103.79"/>
</g>
<!-- AppRoutingModule -->
<g id="node11" class="node">
<title>AppRoutingModule</title>
<polygon fill="#8dd3c7" stroke="black" points="1266.27,-149.8 1263.27,-153.8 1242.27,-153.8 1239.27,-149.8 1137.73,-149.8 1137.73,-113.8 1266.27,-113.8 1266.27,-149.8"/>
<text text-anchor="middle" x="1202" y="-127.6" font-family="Times,serif" font-size="14.00">AppRoutingModule</text>
</g>
<!-- AppRoutingModule&#45;&gt;AppModule -->
<g id="edge10" class="edge">
<title>AppRoutingModule&#45;&gt;AppModule</title>
<path fill="none" stroke="black" d="M1202,-149.93C1202,-170.37 1202,-200.8 1202,-200.8 1202,-200.8 743.74,-200.8 743.74,-200.8"/>
<polygon fill="black" stroke="black" points="743.74,-197.3 733.74,-200.8 743.74,-204.3 743.74,-197.3"/>
</g>
</g>
</svg>
